<mxfile host="app.diagrams.net" agent="Mozilla/5.0 (Windows NT 10.0; Win64; x64) AppleWebKit/537.36 (KHTML, like Gecko) Chrome/135.0.0.0 Safari/537.36" version="26.2.2" pages="2">
  <diagram name="Pagina-1" id="MRenWsmkSmkj4M8pfqVu">
    <mxGraphModel grid="1" page="1" gridSize="10" guides="1" tooltips="1" connect="1" arrows="1" fold="1" pageScale="1" pageWidth="1600" pageHeight="1200" math="0" shadow="0">
      <root>
        <mxCell id="0" />
        <mxCell id="1" parent="0" />
        <mxCell id="7Y8-6h3_lYqPn_erEn_m-35" value="" style="rounded=0;whiteSpace=wrap;html=1;" vertex="1" parent="1">
          <mxGeometry x="480" y="200" width="240" height="160" as="geometry" />
        </mxCell>
        <mxCell id="7Y8-6h3_lYqPn_erEn_m-5" value="" style="shape=image;imageAspect=0;aspect=fixed;verticalLabelPosition=bottom;verticalAlign=top;image=data:image/svg+xml,PHN2ZyB4bWxucz0iaHR0cDovL3d3dy53My5vcmcvMjAwMC9zdmciIHZpZXdCb3g9IjAuNTY2OTMyMTQxNzgwODUzMyAwLjAwMDA1NTQzMjk5OTk0MzE1MDIxIDI1NzEuMjMzMzk4NDM3NSAxNzYzLjExNDk5MDIzNDM3NSIgaGVpZ2h0PSIxNzYzLjExNTA4OTkyNzYxMjkiIHdpZHRoPSIyNTcxLjIzMzM5ODQzNzUiIGlkPSJzdmcyIiB2ZXJzaW9uPSIxLjEiPiYjeGE7ICAmI3hhOyAgPGRlZnMgaWQ9ImRlZnM2Ii8+JiN4YTsgIDxnIGlkPSJnMiI+JiN4YTsgICAgPHBhdGggaWQ9InBhdGg1NzIiIHN0eWxlPSJmaWxsOiNlNmU1ZTQ7ZmlsbC1vcGFjaXR5OjE7ZmlsbC1ydWxlOm5vbnplcm87c3Ryb2tlOm5vbmU7c3Ryb2tlLXdpZHRoOjAuMTMzMzMzIiBkPSJtIDI1NzEuODAwMiw4Mi4zMDY3MiB2IDg4LjQyNjY2IEggMC41NjY5MzIxNCBWIDgyLjMwNjcyIEMgMC41NjY5MzIxNCwzNi44NDAwNTUgMzcuNDA2OTMxLDUuNTQzM2UtNSA4Mi44NjAyNjMsNS41NDMzZS01IEggMjQ4OS41MDY5IGMgNDUuNDUzMywwIDgyLjI5MzMsMzYuODM5OTk5NTY3IDgyLjI5MzMsODIuMzA2NjY0NTY3Ii8+JiN4YTsgICAgPHBhdGggaWQ9InBhdGg1NzQiIHN0eWxlPSJmaWxsOiNmZmZmZmY7ZmlsbC1vcGFjaXR5OjE7ZmlsbC1ydWxlOm5vbnplcm87c3Ryb2tlOiNlNmU1ZTQ7c3Ryb2tlLXdpZHRoOjkuOTc3MjY7c3Ryb2tlLWRhc2hhcnJheTpub25lO3N0cm9rZS1vcGFjaXR5OjEiIGQ9Ik0gMjU2Ny45MTYzLDE3MC43MTk2NCBWIDE2ODEuMDQ0NyBjIDAsNDUuMzE1NSAtMzYuNzE0Niw4Mi4wNzAzIC04Mi4wMTM1LDgyLjA3MDMgSCA4Ny40Mzg3NDkgYyAtNDUuMjk4NzkyLDAgLTgyLjAxMzUzNSwtMzYuNzU0OCAtODIuMDEzNTM1LC04Mi4wNzAzIFYgMTcwLjcxOTY0IEggMjU2Ny45MTYzIi8+JiN4YTsgICAgPHBhdGggaWQ9InBhdGg1NzYiIHN0eWxlPSJmaWxsOiNmZmZmZmY7ZmlsbC1vcGFjaXR5OjE7ZmlsbC1ydWxlOm5vbnplcm87c3Ryb2tlOm5vbmU7c3Ryb2tlLXdpZHRoOjAuMTMzMzMzIiBkPSJtIDQ1OC4yODY5Miw4OC4wMTMzODcgYyAwLDIwLjYwMDAwMyAtMTYuNywzNy4yOTMzMzMgLTM3LjI5ODY3LDM3LjI5MzMzMyAtMjAuNTk5OTksMCAtMzcuMjk4NjYsLTE2LjY5MzMzIC0zNy4yOTg2NiwtMzcuMjkzMzMzIDAsLTIwLjYgMTYuNjk4NjcsLTM3LjI5MzMzMyAzNy4yOTg2NiwtMzcuMjkzMzMzIDIwLjU5ODY3LDAgMzcuMjk4NjcsMTYuNjkzMzMzIDM3LjI5ODY3LDM3LjI5MzMzMyIvPiYjeGE7ICAgIDxwYXRoIGlkPSJwYXRoNTc4IiBzdHlsZT0iZmlsbDojN2E3ZDgyO2ZpbGwtb3BhY2l0eToxO2ZpbGwtcnVsZTpub256ZXJvO3N0cm9rZTpub25lO3N0cm9rZS13aWR0aDowLjEzMzMzMyIgZD0ibSA0MDMuMzI1NTksOTEuMzQ2NzIgaCAzNi4xMTA2NiBjIDEuODQsMCAzLjMzMzM0LC0xLjQ5MzMzMyAzLjMzMzM0LC0zLjMzMzMzMyAwLC0xLjg0IC0xLjQ5MzM0LC0zLjMzMzMzNCAtMy4zMzMzNCwtMy4zMzMzMzQgaCAtMzYuMTEwNjYgYyAtMS44NDEzMywwIC0zLjMzMzMzLDEuNDkzMzM0IC0zLjMzMzMzLDMuMzMzMzM0IDAsMS44NCAxLjQ5MiwzLjMzMzMzMyAzLjMzMzMzLDMuMzMzMzMzIi8+JiN4YTsgICAgPHBhdGggaWQ9InBhdGg1ODAiIHN0eWxlPSJmaWxsOiM3YTdkODI7ZmlsbC1vcGFjaXR5OjE7ZmlsbC1ydWxlOm5vbnplcm87c3Ryb2tlOm5vbmU7c3Ryb2tlLXdpZHRoOjAuMTMzMzMzIiBkPSJNIDQyMy4zNDQyNSwxMDMuMzIwMDUgNDA4LjAzODkyLDg4LjAxMzM4NyA0MjMuMzQ0MjUsNzIuNzA2NzIgYyAxLjMwMjY3LC0xLjMwNjY2NiAxLjMwMjY3LC0zLjQxMzMzMyAwLC00LjcwNjY2NiAtMS4zMDEzMywtMS4zMDY2NjcgLTMuNDEyLC0xLjMwNjY2NyAtNC43MTMzMywwIGwgLTE3LjY2MjY2LDE3LjY1MzMzMyBjIC0xLjMwMjY3LDEuMzA2NjY2IC0xLjMwMjY3LDMuNDEzMzMzIDAsNC43MiBsIDE3LjY2MjY2LDE3LjY2NjY2MyBjIDEuMzAxMzMsMS4yOTMzNCAzLjQxMiwxLjI5MzM0IDQuNzEzMzMsMCAxLjMwMjY3LC0xLjMwNjY2IDEuMzAyNjcsLTMuNDEzMzMgMCwtNC43MiIvPiYjeGE7ICAgIDxwYXRoIGlkPSJwYXRoNTgyIiBzdHlsZT0iZmlsbDojZmZmZmZmO2ZpbGwtb3BhY2l0eToxO2ZpbGwtcnVsZTpub256ZXJvO3N0cm9rZTpub25lO3N0cm9rZS13aWR0aDowLjEzMzMzMyIgZD0ibSA1MDQuMTEzNTksODguMDEzMzg3IGMgMCwyMC42MDAwMDMgMTYuNjk4NjYsMzcuMjkzMzMzIDM3LjI5NzMzLDM3LjI5MzMzMyAyMC42LDAgMzcuMywtMTYuNjkzMzMgMzcuMywtMzcuMjkzMzMzIDAsLTIwLjYgLTE2LjcsLTM3LjI5MzMzMyAtMzcuMywtMzcuMjkzMzMzIC0yMC41OTg2NywwIC0zNy4yOTczMywxNi42OTMzMzMgLTM3LjI5NzMzLDM3LjI5MzMzMyIvPiYjeGE7ICAgIDxwYXRoIGlkPSJwYXRoNTg0IiBzdHlsZT0iZmlsbDojN2E3ZDgyO2ZpbGwtb3BhY2l0eToxO2ZpbGwtcnVsZTpub256ZXJvO3N0cm9rZTpub25lO3N0cm9rZS13aWR0aDowLjEzMzMzMyIgZD0ibSA1NTkuMDc0OTIsODQuNjgwMDUzIGggLTM2LjExMDY3IGMgLTEuODQxMzMsMCAtMy4zMzMzMywxLjQ5MzMzNCAtMy4zMzMzMywzLjMzMzMzNCAwLDEuODQgMS40OTIsMy4zMzMzMzMgMy4zMzMzMywzLjMzMzMzMyBoIDM2LjExMDY3IGMgMS44NDEzMywwIDMuMzMzMzMsLTEuNDkzMzMzIDMuMzMzMzMsLTMuMzMzMzMzIDAsLTEuODQgLTEuNDkyLC0zLjMzMzMzNCAtMy4zMzMzMywtMy4zMzMzMzQiLz4mI3hhOyAgICA8cGF0aCBpZD0icGF0aDU4NiIgc3R5bGU9ImZpbGw6IzdhN2Q4MjtmaWxsLW9wYWNpdHk6MTtmaWxsLXJ1bGU6bm9uemVybztzdHJva2U6bm9uZTtzdHJva2Utd2lkdGg6MC4xMzMzMzMiIGQ9Im0gNTQzLjc2ODI1LDEwOC4wNDAwNSAxNy42NjQsLTE3LjY2NjY2MyBjIDAuNjIsLTAuNjI2NjY3IDAuOTc2LC0xLjQ4IDAuOTc2LC0yLjM2IDAsLTAuODggLTAuMzU2LC0xLjczMzMzNCAtMC45NzYsLTIuMzYgbCAtMTcuNjY0LC0xNy42NTMzMzMgYyAtMS4zMDEzMywtMS4zMDY2NjcgLTMuNDEyLC0xLjMwNjY2NyAtNC43MTMzMywwIC0xLjMwMjY3LDEuMjkzMzMzIC0xLjMwMjY3LDMuNCAwLDQuNzA2NjY2IGwgMTUuMzA1MzMsMTUuMzA2NjY3IC0xNS4zMDUzMywxNS4zMDY2NjMgYyAtMS4zMDI2NywxLjMwNjY3IC0xLjMwMjY3LDMuNDEzMzQgMCw0LjcyIDEuMzAxMzMsMS4yOTMzNCAzLjQxMiwxLjI5MzM0IDQuNzEzMzMsMCIvPiYjeGE7ICAgIDxwYXRoIGlkPSJwYXRoNTg4IiBzdHlsZT0iZmlsbDojM2ViMDc4O2ZpbGwtb3BhY2l0eToxO2ZpbGwtcnVsZTpub256ZXJvO3N0cm9rZTpub25lO3N0cm9rZS13aWR0aDowLjEzMzMzMyIgZD0ibSAzMDkuNzE4OTIsODguMDEzMzg3IGMgMCwxMi44NjY2NjMgLTEwLjQyNCwyMy4yODAwMDMgLTIzLjI4MjY2LDIzLjI4MDAwMyAtMTIuODYsMCAtMjMuMjg0LC0xMC40MTMzNCAtMjMuMjg0LC0yMy4yODAwMDMgMCwtMTIuODUzMzMzIDEwLjQyNCwtMjMuMjggMjMuMjg0LC0yMy4yOCAxMi44NTg2NiwwIDIzLjI4MjY2LDEwLjQyNjY2NyAyMy4yODI2NiwyMy4yOCIvPiYjeGE7ICAgIDxwYXRoIGlkPSJwYXRoNTkwIiBzdHlsZT0iZmlsbDojZjFhYTBlO2ZpbGwtb3BhY2l0eToxO2ZpbGwtcnVsZTpub256ZXJvO3N0cm9rZTpub25lO3N0cm9rZS13aWR0aDowLjEzMzMzMyIgZD0ibSAyMjIuMzUzNTksODguMDEzMzg3IGMgMCwxMi44NjY2NjMgLTEwLjQyNCwyMy4yODAwMDMgLTIzLjI4MjY2LDIzLjI4MDAwMyAtMTIuODYsMCAtMjMuMjg0LC0xMC40MTMzNCAtMjMuMjg0LC0yMy4yODAwMDMgMCwtMTIuODUzMzMzIDEwLjQyNCwtMjMuMjggMjMuMjg0LC0yMy4yOCAxMi44NTg2NiwwIDIzLjI4MjY2LDEwLjQyNjY2NyAyMy4yODI2NiwyMy4yOCIvPiYjeGE7ICAgIDxwYXRoIGlkPSJwYXRoNTkyIiBzdHlsZT0iZmlsbDojZWMyNzUxO2ZpbGwtb3BhY2l0eToxO2ZpbGwtcnVsZTpub256ZXJvO3N0cm9rZTpub25lO3N0cm9rZS13aWR0aDowLjEzMzMzMyIgZD0ibSAxMzQuOTg4MjYsODguMDEzMzg3IGMgMCwxMi44NjY2NjMgLTEwLjQyNCwyMy4yODAwMDMgLTIzLjI4NCwyMy4yODAwMDMgLTEyLjg1ODY2NCwwIC0yMy4yODI2NjMsLTEwLjQxMzM0IC0yMy4yODI2NjMsLTIzLjI4MDAwMyAwLC0xMi44NTMzMzMgMTAuNDIzOTk5LC0yMy4yOCAyMy4yODI2NjMsLTIzLjI4IDEyLjg2LDAgMjMuMjg0LDEwLjQyNjY2NyAyMy4yODQsMjMuMjgiLz4mI3hhOyAgICA8cGF0aCBpZD0icGF0aDU5NCIgc3R5bGU9ImZpbGw6I2ZmZmZmZjtmaWxsLW9wYWNpdHk6MTtmaWxsLXJ1bGU6bm9uemVybztzdHJva2U6bm9uZTtzdHJva2Utd2lkdGg6MC4xMzMzMzMiIGQ9Ik0gMjM4Ni42OTM1LDEyNS4zMDY3MiBIIDY1NS4yMjY5MiBjIC0yMC42LDAgLTM3LjMwMjY3LC0xNi42OTMzMyAtMzcuMzAyNjcsLTM3LjI5MzMzMyAwLC0yMC42IDE2LjcwMjY3LC0zNy4yOTMzMzMgMzcuMzAyNjcsLTM3LjI5MzMzMyBIIDIzODYuNjkzNSBjIDIwLjYsMCAzNy4yOTM0LDE2LjY5MzMzMyAzNy4yOTM0LDM3LjI5MzMzMyAwLDIwLjYwMDAwMyAtMTYuNjkzNCwzNy4yOTMzMzMgLTM3LjI5MzQsMzcuMjkzMzMzIi8+JiN4YTsgIDwvZz4mI3hhOzwvc3ZnPg==;" vertex="1" parent="1">
          <mxGeometry x="520" y="225" width="160" height="110" as="geometry" />
        </mxCell>
        <mxCell id="7Y8-6h3_lYqPn_erEn_m-25" value="" style="group" vertex="1" connectable="0" parent="1">
          <mxGeometry x="538.89" y="265.11999999999995" width="122" height="29.77000000000004" as="geometry" />
        </mxCell>
        <mxCell id="7Y8-6h3_lYqPn_erEn_m-19" value="" style="group" vertex="1" connectable="0" parent="7Y8-6h3_lYqPn_erEn_m-25">
          <mxGeometry width="122" height="22" as="geometry" />
        </mxCell>
        <mxCell id="7Y8-6h3_lYqPn_erEn_m-18" value="" style="rounded=1;whiteSpace=wrap;html=1;strokeColor=#33FFFF;" vertex="1" parent="7Y8-6h3_lYqPn_erEn_m-19">
          <mxGeometry width="122" height="22" as="geometry" />
        </mxCell>
        <mxCell id="7Y8-6h3_lYqPn_erEn_m-6" value="" style="rounded=1;whiteSpace=wrap;html=1;" vertex="1" parent="7Y8-6h3_lYqPn_erEn_m-19">
          <mxGeometry x="1" y="1" width="120" height="20" as="geometry" />
        </mxCell>
        <mxCell id="7Y8-6h3_lYqPn_erEn_m-8" value="" style="ellipse;whiteSpace=wrap;html=1;aspect=fixed;fillColor=#000000;" vertex="1" parent="7Y8-6h3_lYqPn_erEn_m-19">
          <mxGeometry x="5" y="6" width="10" height="10" as="geometry" />
        </mxCell>
        <mxCell id="7Y8-6h3_lYqPn_erEn_m-9" value="" style="ellipse;whiteSpace=wrap;html=1;aspect=fixed;fillColor=#000000;" vertex="1" parent="7Y8-6h3_lYqPn_erEn_m-19">
          <mxGeometry x="17" y="6" width="10" height="10" as="geometry" />
        </mxCell>
        <mxCell id="7Y8-6h3_lYqPn_erEn_m-10" value="" style="ellipse;whiteSpace=wrap;html=1;aspect=fixed;fillColor=#000000;" vertex="1" parent="7Y8-6h3_lYqPn_erEn_m-19">
          <mxGeometry x="29" y="6" width="10" height="10" as="geometry" />
        </mxCell>
        <mxCell id="7Y8-6h3_lYqPn_erEn_m-11" value="" style="ellipse;whiteSpace=wrap;html=1;aspect=fixed;fillColor=#000000;" vertex="1" parent="7Y8-6h3_lYqPn_erEn_m-19">
          <mxGeometry x="41" y="6" width="10" height="10" as="geometry" />
        </mxCell>
        <mxCell id="7Y8-6h3_lYqPn_erEn_m-12" value="" style="ellipse;whiteSpace=wrap;html=1;aspect=fixed;fillColor=#000000;" vertex="1" parent="7Y8-6h3_lYqPn_erEn_m-19">
          <mxGeometry x="53" y="6" width="10" height="10" as="geometry" />
        </mxCell>
        <mxCell id="7Y8-6h3_lYqPn_erEn_m-13" value="" style="ellipse;whiteSpace=wrap;html=1;aspect=fixed;fillColor=#000000;" vertex="1" parent="7Y8-6h3_lYqPn_erEn_m-19">
          <mxGeometry x="65" y="6" width="10" height="10" as="geometry" />
        </mxCell>
        <mxCell id="7Y8-6h3_lYqPn_erEn_m-14" value="" style="ellipse;whiteSpace=wrap;html=1;aspect=fixed;fillColor=#000000;" vertex="1" parent="7Y8-6h3_lYqPn_erEn_m-19">
          <mxGeometry x="77" y="6" width="10" height="10" as="geometry" />
        </mxCell>
        <mxCell id="7Y8-6h3_lYqPn_erEn_m-15" value="" style="ellipse;whiteSpace=wrap;html=1;aspect=fixed;fillColor=#000000;" vertex="1" parent="7Y8-6h3_lYqPn_erEn_m-19">
          <mxGeometry x="89" y="6" width="10" height="10" as="geometry" />
        </mxCell>
        <mxCell id="7Y8-6h3_lYqPn_erEn_m-17" value="" style="endArrow=none;html=1;rounded=0;" edge="1" parent="7Y8-6h3_lYqPn_erEn_m-19">
          <mxGeometry width="50" height="50" relative="1" as="geometry">
            <mxPoint x="101" y="19" as="sourcePoint" />
            <mxPoint x="101" y="3" as="targetPoint" />
          </mxGeometry>
        </mxCell>
        <mxCell id="7Y8-6h3_lYqPn_erEn_m-20" value="" style="rounded=1;whiteSpace=wrap;html=1;fillColor=#33FF33;" vertex="1" parent="7Y8-6h3_lYqPn_erEn_m-25">
          <mxGeometry y="26.000000000000057" width="38" height="3.77" as="geometry" />
        </mxCell>
        <mxCell id="7Y8-6h3_lYqPn_erEn_m-23" value="" style="rounded=1;whiteSpace=wrap;html=1;fillColor=#33FF33;" vertex="1" parent="7Y8-6h3_lYqPn_erEn_m-25">
          <mxGeometry x="42" y="26.000000000000057" width="38" height="3.77" as="geometry" />
        </mxCell>
        <mxCell id="7Y8-6h3_lYqPn_erEn_m-24" value="" style="rounded=1;whiteSpace=wrap;html=1;fillColor=#FF3333;" vertex="1" parent="7Y8-6h3_lYqPn_erEn_m-25">
          <mxGeometry x="84" y="26.000000000000057" width="38" height="3.77" as="geometry" />
        </mxCell>
        <mxCell id="7Y8-6h3_lYqPn_erEn_m-26" value="" style="shape=image;verticalLabelPosition=bottom;labelBackgroundColor=default;verticalAlign=top;aspect=fixed;imageAspect=0;image=https://playwright.dev/img/playwright-logo.svg;" vertex="1" parent="1">
          <mxGeometry x="660.11" y="220" width="40" height="40" as="geometry" />
        </mxCell>
        <mxCell id="f_3cH1hv_5cSLZPSs6c6-3" value="&lt;b&gt;2. PSM Detection&lt;/b&gt;" style="text;html=1;align=left;verticalAlign=middle;whiteSpace=wrap;rounded=0;" vertex="1" parent="1">
          <mxGeometry x="480" y="170" width="240.11" height="30" as="geometry" />
        </mxCell>
        <mxCell id="f_3cH1hv_5cSLZPSs6c6-32" style="edgeStyle=orthogonalEdgeStyle;rounded=0;orthogonalLoop=1;jettySize=auto;html=1;exitX=1;exitY=0.5;exitDx=0;exitDy=0;exitPerimeter=0;entryX=0;entryY=0.5;entryDx=0;entryDy=0;" edge="1" parent="1" source="f_3cH1hv_5cSLZPSs6c6-4" target="f_3cH1hv_5cSLZPSs6c6-34">
          <mxGeometry relative="1" as="geometry" />
        </mxCell>
        <mxCell id="f_3cH1hv_5cSLZPSs6c6-4" value="Site List" style="shape=cylinder3;whiteSpace=wrap;html=1;boundedLbl=1;backgroundOutline=1;size=15;" vertex="1" parent="1">
          <mxGeometry x="20" y="240" width="60" height="80" as="geometry" />
        </mxCell>
        <mxCell id="f_3cH1hv_5cSLZPSs6c6-56" style="edgeStyle=orthogonalEdgeStyle;rounded=0;orthogonalLoop=1;jettySize=auto;html=1;exitX=1;exitY=0.5;exitDx=0;exitDy=0;entryX=0;entryY=0.5;entryDx=0;entryDy=0;" edge="1" parent="1" source="f_3cH1hv_5cSLZPSs6c6-34" target="7Y8-6h3_lYqPn_erEn_m-35">
          <mxGeometry relative="1" as="geometry" />
        </mxCell>
        <mxCell id="f_3cH1hv_5cSLZPSs6c6-34" value="" style="rounded=0;whiteSpace=wrap;html=1;" vertex="1" parent="1">
          <mxGeometry x="119.71999999999998" y="200" width="240" height="160" as="geometry" />
        </mxCell>
        <mxCell id="f_3cH1hv_5cSLZPSs6c6-35" value="" style="shape=image;imageAspect=0;aspect=fixed;verticalLabelPosition=bottom;verticalAlign=top;image=data:image/svg+xml,PHN2ZyB4bWxucz0iaHR0cDovL3d3dy53My5vcmcvMjAwMC9zdmciIHZpZXdCb3g9IjAuNTY2OTMyMTQxNzgwODUzMyAwLjAwMDA1NTQzMjk5OTk0MzE1MDIxIDI1NzEuMjMzMzk4NDM3NSAxNzYzLjExNDk5MDIzNDM3NSIgaGVpZ2h0PSIxNzYzLjExNTA4OTkyNzYxMjkiIHdpZHRoPSIyNTcxLjIzMzM5ODQzNzUiIGlkPSJzdmcyIiB2ZXJzaW9uPSIxLjEiPiYjeGE7ICAmI3hhOyAgPGRlZnMgaWQ9ImRlZnM2Ii8+JiN4YTsgIDxnIGlkPSJnMiI+JiN4YTsgICAgPHBhdGggaWQ9InBhdGg1NzIiIHN0eWxlPSJmaWxsOiNlNmU1ZTQ7ZmlsbC1vcGFjaXR5OjE7ZmlsbC1ydWxlOm5vbnplcm87c3Ryb2tlOm5vbmU7c3Ryb2tlLXdpZHRoOjAuMTMzMzMzIiBkPSJtIDI1NzEuODAwMiw4Mi4zMDY3MiB2IDg4LjQyNjY2IEggMC41NjY5MzIxNCBWIDgyLjMwNjcyIEMgMC41NjY5MzIxNCwzNi44NDAwNTUgMzcuNDA2OTMxLDUuNTQzM2UtNSA4Mi44NjAyNjMsNS41NDMzZS01IEggMjQ4OS41MDY5IGMgNDUuNDUzMywwIDgyLjI5MzMsMzYuODM5OTk5NTY3IDgyLjI5MzMsODIuMzA2NjY0NTY3Ii8+JiN4YTsgICAgPHBhdGggaWQ9InBhdGg1NzQiIHN0eWxlPSJmaWxsOiNmZmZmZmY7ZmlsbC1vcGFjaXR5OjE7ZmlsbC1ydWxlOm5vbnplcm87c3Ryb2tlOiNlNmU1ZTQ7c3Ryb2tlLXdpZHRoOjkuOTc3MjY7c3Ryb2tlLWRhc2hhcnJheTpub25lO3N0cm9rZS1vcGFjaXR5OjEiIGQ9Ik0gMjU2Ny45MTYzLDE3MC43MTk2NCBWIDE2ODEuMDQ0NyBjIDAsNDUuMzE1NSAtMzYuNzE0Niw4Mi4wNzAzIC04Mi4wMTM1LDgyLjA3MDMgSCA4Ny40Mzg3NDkgYyAtNDUuMjk4NzkyLDAgLTgyLjAxMzUzNSwtMzYuNzU0OCAtODIuMDEzNTM1LC04Mi4wNzAzIFYgMTcwLjcxOTY0IEggMjU2Ny45MTYzIi8+JiN4YTsgICAgPHBhdGggaWQ9InBhdGg1NzYiIHN0eWxlPSJmaWxsOiNmZmZmZmY7ZmlsbC1vcGFjaXR5OjE7ZmlsbC1ydWxlOm5vbnplcm87c3Ryb2tlOm5vbmU7c3Ryb2tlLXdpZHRoOjAuMTMzMzMzIiBkPSJtIDQ1OC4yODY5Miw4OC4wMTMzODcgYyAwLDIwLjYwMDAwMyAtMTYuNywzNy4yOTMzMzMgLTM3LjI5ODY3LDM3LjI5MzMzMyAtMjAuNTk5OTksMCAtMzcuMjk4NjYsLTE2LjY5MzMzIC0zNy4yOTg2NiwtMzcuMjkzMzMzIDAsLTIwLjYgMTYuNjk4NjcsLTM3LjI5MzMzMyAzNy4yOTg2NiwtMzcuMjkzMzMzIDIwLjU5ODY3LDAgMzcuMjk4NjcsMTYuNjkzMzMzIDM3LjI5ODY3LDM3LjI5MzMzMyIvPiYjeGE7ICAgIDxwYXRoIGlkPSJwYXRoNTc4IiBzdHlsZT0iZmlsbDojN2E3ZDgyO2ZpbGwtb3BhY2l0eToxO2ZpbGwtcnVsZTpub256ZXJvO3N0cm9rZTpub25lO3N0cm9rZS13aWR0aDowLjEzMzMzMyIgZD0ibSA0MDMuMzI1NTksOTEuMzQ2NzIgaCAzNi4xMTA2NiBjIDEuODQsMCAzLjMzMzM0LC0xLjQ5MzMzMyAzLjMzMzM0LC0zLjMzMzMzMyAwLC0xLjg0IC0xLjQ5MzM0LC0zLjMzMzMzNCAtMy4zMzMzNCwtMy4zMzMzMzQgaCAtMzYuMTEwNjYgYyAtMS44NDEzMywwIC0zLjMzMzMzLDEuNDkzMzM0IC0zLjMzMzMzLDMuMzMzMzM0IDAsMS44NCAxLjQ5MiwzLjMzMzMzMyAzLjMzMzMzLDMuMzMzMzMzIi8+JiN4YTsgICAgPHBhdGggaWQ9InBhdGg1ODAiIHN0eWxlPSJmaWxsOiM3YTdkODI7ZmlsbC1vcGFjaXR5OjE7ZmlsbC1ydWxlOm5vbnplcm87c3Ryb2tlOm5vbmU7c3Ryb2tlLXdpZHRoOjAuMTMzMzMzIiBkPSJNIDQyMy4zNDQyNSwxMDMuMzIwMDUgNDA4LjAzODkyLDg4LjAxMzM4NyA0MjMuMzQ0MjUsNzIuNzA2NzIgYyAxLjMwMjY3LC0xLjMwNjY2NiAxLjMwMjY3LC0zLjQxMzMzMyAwLC00LjcwNjY2NiAtMS4zMDEzMywtMS4zMDY2NjcgLTMuNDEyLC0xLjMwNjY2NyAtNC43MTMzMywwIGwgLTE3LjY2MjY2LDE3LjY1MzMzMyBjIC0xLjMwMjY3LDEuMzA2NjY2IC0xLjMwMjY3LDMuNDEzMzMzIDAsNC43MiBsIDE3LjY2MjY2LDE3LjY2NjY2MyBjIDEuMzAxMzMsMS4yOTMzNCAzLjQxMiwxLjI5MzM0IDQuNzEzMzMsMCAxLjMwMjY3LC0xLjMwNjY2IDEuMzAyNjcsLTMuNDEzMzMgMCwtNC43MiIvPiYjeGE7ICAgIDxwYXRoIGlkPSJwYXRoNTgyIiBzdHlsZT0iZmlsbDojZmZmZmZmO2ZpbGwtb3BhY2l0eToxO2ZpbGwtcnVsZTpub256ZXJvO3N0cm9rZTpub25lO3N0cm9rZS13aWR0aDowLjEzMzMzMyIgZD0ibSA1MDQuMTEzNTksODguMDEzMzg3IGMgMCwyMC42MDAwMDMgMTYuNjk4NjYsMzcuMjkzMzMzIDM3LjI5NzMzLDM3LjI5MzMzMyAyMC42LDAgMzcuMywtMTYuNjkzMzMgMzcuMywtMzcuMjkzMzMzIDAsLTIwLjYgLTE2LjcsLTM3LjI5MzMzMyAtMzcuMywtMzcuMjkzMzMzIC0yMC41OTg2NywwIC0zNy4yOTczMywxNi42OTMzMzMgLTM3LjI5NzMzLDM3LjI5MzMzMyIvPiYjeGE7ICAgIDxwYXRoIGlkPSJwYXRoNTg0IiBzdHlsZT0iZmlsbDojN2E3ZDgyO2ZpbGwtb3BhY2l0eToxO2ZpbGwtcnVsZTpub256ZXJvO3N0cm9rZTpub25lO3N0cm9rZS13aWR0aDowLjEzMzMzMyIgZD0ibSA1NTkuMDc0OTIsODQuNjgwMDUzIGggLTM2LjExMDY3IGMgLTEuODQxMzMsMCAtMy4zMzMzMywxLjQ5MzMzNCAtMy4zMzMzMywzLjMzMzMzNCAwLDEuODQgMS40OTIsMy4zMzMzMzMgMy4zMzMzMywzLjMzMzMzMyBoIDM2LjExMDY3IGMgMS44NDEzMywwIDMuMzMzMzMsLTEuNDkzMzMzIDMuMzMzMzMsLTMuMzMzMzMzIDAsLTEuODQgLTEuNDkyLC0zLjMzMzMzNCAtMy4zMzMzMywtMy4zMzMzMzQiLz4mI3hhOyAgICA8cGF0aCBpZD0icGF0aDU4NiIgc3R5bGU9ImZpbGw6IzdhN2Q4MjtmaWxsLW9wYWNpdHk6MTtmaWxsLXJ1bGU6bm9uemVybztzdHJva2U6bm9uZTtzdHJva2Utd2lkdGg6MC4xMzMzMzMiIGQ9Im0gNTQzLjc2ODI1LDEwOC4wNDAwNSAxNy42NjQsLTE3LjY2NjY2MyBjIDAuNjIsLTAuNjI2NjY3IDAuOTc2LC0xLjQ4IDAuOTc2LC0yLjM2IDAsLTAuODggLTAuMzU2LC0xLjczMzMzNCAtMC45NzYsLTIuMzYgbCAtMTcuNjY0LC0xNy42NTMzMzMgYyAtMS4zMDEzMywtMS4zMDY2NjcgLTMuNDEyLC0xLjMwNjY2NyAtNC43MTMzMywwIC0xLjMwMjY3LDEuMjkzMzMzIC0xLjMwMjY3LDMuNCAwLDQuNzA2NjY2IGwgMTUuMzA1MzMsMTUuMzA2NjY3IC0xNS4zMDUzMywxNS4zMDY2NjMgYyAtMS4zMDI2NywxLjMwNjY3IC0xLjMwMjY3LDMuNDEzMzQgMCw0LjcyIDEuMzAxMzMsMS4yOTMzNCAzLjQxMiwxLjI5MzM0IDQuNzEzMzMsMCIvPiYjeGE7ICAgIDxwYXRoIGlkPSJwYXRoNTg4IiBzdHlsZT0iZmlsbDojM2ViMDc4O2ZpbGwtb3BhY2l0eToxO2ZpbGwtcnVsZTpub256ZXJvO3N0cm9rZTpub25lO3N0cm9rZS13aWR0aDowLjEzMzMzMyIgZD0ibSAzMDkuNzE4OTIsODguMDEzMzg3IGMgMCwxMi44NjY2NjMgLTEwLjQyNCwyMy4yODAwMDMgLTIzLjI4MjY2LDIzLjI4MDAwMyAtMTIuODYsMCAtMjMuMjg0LC0xMC40MTMzNCAtMjMuMjg0LC0yMy4yODAwMDMgMCwtMTIuODUzMzMzIDEwLjQyNCwtMjMuMjggMjMuMjg0LC0yMy4yOCAxMi44NTg2NiwwIDIzLjI4MjY2LDEwLjQyNjY2NyAyMy4yODI2NiwyMy4yOCIvPiYjeGE7ICAgIDxwYXRoIGlkPSJwYXRoNTkwIiBzdHlsZT0iZmlsbDojZjFhYTBlO2ZpbGwtb3BhY2l0eToxO2ZpbGwtcnVsZTpub256ZXJvO3N0cm9rZTpub25lO3N0cm9rZS13aWR0aDowLjEzMzMzMyIgZD0ibSAyMjIuMzUzNTksODguMDEzMzg3IGMgMCwxMi44NjY2NjMgLTEwLjQyNCwyMy4yODAwMDMgLTIzLjI4MjY2LDIzLjI4MDAwMyAtMTIuODYsMCAtMjMuMjg0LC0xMC40MTMzNCAtMjMuMjg0LC0yMy4yODAwMDMgMCwtMTIuODUzMzMzIDEwLjQyNCwtMjMuMjggMjMuMjg0LC0yMy4yOCAxMi44NTg2NiwwIDIzLjI4MjY2LDEwLjQyNjY2NyAyMy4yODI2NiwyMy4yOCIvPiYjeGE7ICAgIDxwYXRoIGlkPSJwYXRoNTkyIiBzdHlsZT0iZmlsbDojZWMyNzUxO2ZpbGwtb3BhY2l0eToxO2ZpbGwtcnVsZTpub256ZXJvO3N0cm9rZTpub25lO3N0cm9rZS13aWR0aDowLjEzMzMzMyIgZD0ibSAxMzQuOTg4MjYsODguMDEzMzg3IGMgMCwxMi44NjY2NjMgLTEwLjQyNCwyMy4yODAwMDMgLTIzLjI4NCwyMy4yODAwMDMgLTEyLjg1ODY2NCwwIC0yMy4yODI2NjMsLTEwLjQxMzM0IC0yMy4yODI2NjMsLTIzLjI4MDAwMyAwLC0xMi44NTMzMzMgMTAuNDIzOTk5LC0yMy4yOCAyMy4yODI2NjMsLTIzLjI4IDEyLjg2LDAgMjMuMjg0LDEwLjQyNjY2NyAyMy4yODQsMjMuMjgiLz4mI3hhOyAgICA8cGF0aCBpZD0icGF0aDU5NCIgc3R5bGU9ImZpbGw6I2ZmZmZmZjtmaWxsLW9wYWNpdHk6MTtmaWxsLXJ1bGU6bm9uemVybztzdHJva2U6bm9uZTtzdHJva2Utd2lkdGg6MC4xMzMzMzMiIGQ9Ik0gMjM4Ni42OTM1LDEyNS4zMDY3MiBIIDY1NS4yMjY5MiBjIC0yMC42LDAgLTM3LjMwMjY3LC0xNi42OTMzMyAtMzcuMzAyNjcsLTM3LjI5MzMzMyAwLC0yMC42IDE2LjcwMjY3LC0zNy4yOTMzMzMgMzcuMzAyNjcsLTM3LjI5MzMzMyBIIDIzODYuNjkzNSBjIDIwLjYsMCAzNy4yOTM0LDE2LjY5MzMzMyAzNy4yOTM0LDM3LjI5MzMzMyAwLDIwLjYwMDAwMyAtMTYuNjkzNCwzNy4yOTMzMzMgLTM3LjI5MzQsMzcuMjkzMzMzIi8+JiN4YTsgIDwvZz4mI3hhOzwvc3ZnPg==;" vertex="1" parent="1">
          <mxGeometry x="159.72" y="225" width="160" height="110" as="geometry" />
        </mxCell>
        <mxCell id="f_3cH1hv_5cSLZPSs6c6-52" value="" style="shape=image;verticalLabelPosition=bottom;labelBackgroundColor=default;verticalAlign=top;aspect=fixed;imageAspect=0;image=https://playwright.dev/img/playwright-logo.svg;" vertex="1" parent="1">
          <mxGeometry x="299.83" y="220" width="40" height="40" as="geometry" />
        </mxCell>
        <mxCell id="f_3cH1hv_5cSLZPSs6c6-53" value="&lt;b&gt;1. Registration Page Detection&lt;/b&gt;" style="text;html=1;align=left;verticalAlign=middle;whiteSpace=wrap;rounded=0;" vertex="1" parent="1">
          <mxGeometry x="119.71999999999998" y="170" width="240.11" height="30" as="geometry" />
        </mxCell>
        <mxCell id="f_3cH1hv_5cSLZPSs6c6-57" value="&lt;span style=&quot;font-size: 11px; background-color: rgb(255, 255, 255);&quot;&gt;Registration Pages&lt;/span&gt;" style="text;html=1;align=center;verticalAlign=middle;resizable=0;points=[];autosize=1;strokeColor=none;fillColor=none;" vertex="1" parent="1">
          <mxGeometry x="360" y="250" width="120" height="30" as="geometry" />
        </mxCell>
        <mxCell id="f_3cH1hv_5cSLZPSs6c6-95" style="edgeStyle=orthogonalEdgeStyle;rounded=0;orthogonalLoop=1;jettySize=auto;html=1;exitX=0.5;exitY=1;exitDx=0;exitDy=0;" edge="1" parent="1" source="f_3cH1hv_5cSLZPSs6c6-60" target="f_3cH1hv_5cSLZPSs6c6-91">
          <mxGeometry relative="1" as="geometry" />
        </mxCell>
        <mxCell id="f_3cH1hv_5cSLZPSs6c6-60" value="" style="rounded=0;whiteSpace=wrap;html=1;" vertex="1" parent="1">
          <mxGeometry x="840.11" y="200" width="240" height="160" as="geometry" />
        </mxCell>
        <mxCell id="f_3cH1hv_5cSLZPSs6c6-61" value="" style="shape=image;imageAspect=0;aspect=fixed;verticalLabelPosition=bottom;verticalAlign=top;image=data:image/svg+xml,PHN2ZyB4bWxucz0iaHR0cDovL3d3dy53My5vcmcvMjAwMC9zdmciIHZpZXdCb3g9IjAuNTY2OTMyMTQxNzgwODUzMyAwLjAwMDA1NTQzMjk5OTk0MzE1MDIxIDI1NzEuMjMzMzk4NDM3NSAxNzYzLjExNDk5MDIzNDM3NSIgaGVpZ2h0PSIxNzYzLjExNTA4OTkyNzYxMjkiIHdpZHRoPSIyNTcxLjIzMzM5ODQzNzUiIGlkPSJzdmcyIiB2ZXJzaW9uPSIxLjEiPiYjeGE7ICAmI3hhOyAgPGRlZnMgaWQ9ImRlZnM2Ii8+JiN4YTsgIDxnIGlkPSJnMiI+JiN4YTsgICAgPHBhdGggaWQ9InBhdGg1NzIiIHN0eWxlPSJmaWxsOiNlNmU1ZTQ7ZmlsbC1vcGFjaXR5OjE7ZmlsbC1ydWxlOm5vbnplcm87c3Ryb2tlOm5vbmU7c3Ryb2tlLXdpZHRoOjAuMTMzMzMzIiBkPSJtIDI1NzEuODAwMiw4Mi4zMDY3MiB2IDg4LjQyNjY2IEggMC41NjY5MzIxNCBWIDgyLjMwNjcyIEMgMC41NjY5MzIxNCwzNi44NDAwNTUgMzcuNDA2OTMxLDUuNTQzM2UtNSA4Mi44NjAyNjMsNS41NDMzZS01IEggMjQ4OS41MDY5IGMgNDUuNDUzMywwIDgyLjI5MzMsMzYuODM5OTk5NTY3IDgyLjI5MzMsODIuMzA2NjY0NTY3Ii8+JiN4YTsgICAgPHBhdGggaWQ9InBhdGg1NzQiIHN0eWxlPSJmaWxsOiNmZmZmZmY7ZmlsbC1vcGFjaXR5OjE7ZmlsbC1ydWxlOm5vbnplcm87c3Ryb2tlOiNlNmU1ZTQ7c3Ryb2tlLXdpZHRoOjkuOTc3MjY7c3Ryb2tlLWRhc2hhcnJheTpub25lO3N0cm9rZS1vcGFjaXR5OjEiIGQ9Ik0gMjU2Ny45MTYzLDE3MC43MTk2NCBWIDE2ODEuMDQ0NyBjIDAsNDUuMzE1NSAtMzYuNzE0Niw4Mi4wNzAzIC04Mi4wMTM1LDgyLjA3MDMgSCA4Ny40Mzg3NDkgYyAtNDUuMjk4NzkyLDAgLTgyLjAxMzUzNSwtMzYuNzU0OCAtODIuMDEzNTM1LC04Mi4wNzAzIFYgMTcwLjcxOTY0IEggMjU2Ny45MTYzIi8+JiN4YTsgICAgPHBhdGggaWQ9InBhdGg1NzYiIHN0eWxlPSJmaWxsOiNmZmZmZmY7ZmlsbC1vcGFjaXR5OjE7ZmlsbC1ydWxlOm5vbnplcm87c3Ryb2tlOm5vbmU7c3Ryb2tlLXdpZHRoOjAuMTMzMzMzIiBkPSJtIDQ1OC4yODY5Miw4OC4wMTMzODcgYyAwLDIwLjYwMDAwMyAtMTYuNywzNy4yOTMzMzMgLTM3LjI5ODY3LDM3LjI5MzMzMyAtMjAuNTk5OTksMCAtMzcuMjk4NjYsLTE2LjY5MzMzIC0zNy4yOTg2NiwtMzcuMjkzMzMzIDAsLTIwLjYgMTYuNjk4NjcsLTM3LjI5MzMzMyAzNy4yOTg2NiwtMzcuMjkzMzMzIDIwLjU5ODY3LDAgMzcuMjk4NjcsMTYuNjkzMzMzIDM3LjI5ODY3LDM3LjI5MzMzMyIvPiYjeGE7ICAgIDxwYXRoIGlkPSJwYXRoNTc4IiBzdHlsZT0iZmlsbDojN2E3ZDgyO2ZpbGwtb3BhY2l0eToxO2ZpbGwtcnVsZTpub256ZXJvO3N0cm9rZTpub25lO3N0cm9rZS13aWR0aDowLjEzMzMzMyIgZD0ibSA0MDMuMzI1NTksOTEuMzQ2NzIgaCAzNi4xMTA2NiBjIDEuODQsMCAzLjMzMzM0LC0xLjQ5MzMzMyAzLjMzMzM0LC0zLjMzMzMzMyAwLC0xLjg0IC0xLjQ5MzM0LC0zLjMzMzMzNCAtMy4zMzMzNCwtMy4zMzMzMzQgaCAtMzYuMTEwNjYgYyAtMS44NDEzMywwIC0zLjMzMzMzLDEuNDkzMzM0IC0zLjMzMzMzLDMuMzMzMzM0IDAsMS44NCAxLjQ5MiwzLjMzMzMzMyAzLjMzMzMzLDMuMzMzMzMzIi8+JiN4YTsgICAgPHBhdGggaWQ9InBhdGg1ODAiIHN0eWxlPSJmaWxsOiM3YTdkODI7ZmlsbC1vcGFjaXR5OjE7ZmlsbC1ydWxlOm5vbnplcm87c3Ryb2tlOm5vbmU7c3Ryb2tlLXdpZHRoOjAuMTMzMzMzIiBkPSJNIDQyMy4zNDQyNSwxMDMuMzIwMDUgNDA4LjAzODkyLDg4LjAxMzM4NyA0MjMuMzQ0MjUsNzIuNzA2NzIgYyAxLjMwMjY3LC0xLjMwNjY2NiAxLjMwMjY3LC0zLjQxMzMzMyAwLC00LjcwNjY2NiAtMS4zMDEzMywtMS4zMDY2NjcgLTMuNDEyLC0xLjMwNjY2NyAtNC43MTMzMywwIGwgLTE3LjY2MjY2LDE3LjY1MzMzMyBjIC0xLjMwMjY3LDEuMzA2NjY2IC0xLjMwMjY3LDMuNDEzMzMzIDAsNC43MiBsIDE3LjY2MjY2LDE3LjY2NjY2MyBjIDEuMzAxMzMsMS4yOTMzNCAzLjQxMiwxLjI5MzM0IDQuNzEzMzMsMCAxLjMwMjY3LC0xLjMwNjY2IDEuMzAyNjcsLTMuNDEzMzMgMCwtNC43MiIvPiYjeGE7ICAgIDxwYXRoIGlkPSJwYXRoNTgyIiBzdHlsZT0iZmlsbDojZmZmZmZmO2ZpbGwtb3BhY2l0eToxO2ZpbGwtcnVsZTpub256ZXJvO3N0cm9rZTpub25lO3N0cm9rZS13aWR0aDowLjEzMzMzMyIgZD0ibSA1MDQuMTEzNTksODguMDEzMzg3IGMgMCwyMC42MDAwMDMgMTYuNjk4NjYsMzcuMjkzMzMzIDM3LjI5NzMzLDM3LjI5MzMzMyAyMC42LDAgMzcuMywtMTYuNjkzMzMgMzcuMywtMzcuMjkzMzMzIDAsLTIwLjYgLTE2LjcsLTM3LjI5MzMzMyAtMzcuMywtMzcuMjkzMzMzIC0yMC41OTg2NywwIC0zNy4yOTczMywxNi42OTMzMzMgLTM3LjI5NzMzLDM3LjI5MzMzMyIvPiYjeGE7ICAgIDxwYXRoIGlkPSJwYXRoNTg0IiBzdHlsZT0iZmlsbDojN2E3ZDgyO2ZpbGwtb3BhY2l0eToxO2ZpbGwtcnVsZTpub256ZXJvO3N0cm9rZTpub25lO3N0cm9rZS13aWR0aDowLjEzMzMzMyIgZD0ibSA1NTkuMDc0OTIsODQuNjgwMDUzIGggLTM2LjExMDY3IGMgLTEuODQxMzMsMCAtMy4zMzMzMywxLjQ5MzMzNCAtMy4zMzMzMywzLjMzMzMzNCAwLDEuODQgMS40OTIsMy4zMzMzMzMgMy4zMzMzMywzLjMzMzMzMyBoIDM2LjExMDY3IGMgMS44NDEzMywwIDMuMzMzMzMsLTEuNDkzMzMzIDMuMzMzMzMsLTMuMzMzMzMzIDAsLTEuODQgLTEuNDkyLC0zLjMzMzMzNCAtMy4zMzMzMywtMy4zMzMzMzQiLz4mI3hhOyAgICA8cGF0aCBpZD0icGF0aDU4NiIgc3R5bGU9ImZpbGw6IzdhN2Q4MjtmaWxsLW9wYWNpdHk6MTtmaWxsLXJ1bGU6bm9uemVybztzdHJva2U6bm9uZTtzdHJva2Utd2lkdGg6MC4xMzMzMzMiIGQ9Im0gNTQzLjc2ODI1LDEwOC4wNDAwNSAxNy42NjQsLTE3LjY2NjY2MyBjIDAuNjIsLTAuNjI2NjY3IDAuOTc2LC0xLjQ4IDAuOTc2LC0yLjM2IDAsLTAuODggLTAuMzU2LC0xLjczMzMzNCAtMC45NzYsLTIuMzYgbCAtMTcuNjY0LC0xNy42NTMzMzMgYyAtMS4zMDEzMywtMS4zMDY2NjcgLTMuNDEyLC0xLjMwNjY2NyAtNC43MTMzMywwIC0xLjMwMjY3LDEuMjkzMzMzIC0xLjMwMjY3LDMuNCAwLDQuNzA2NjY2IGwgMTUuMzA1MzMsMTUuMzA2NjY3IC0xNS4zMDUzMywxNS4zMDY2NjMgYyAtMS4zMDI2NywxLjMwNjY3IC0xLjMwMjY3LDMuNDEzMzQgMCw0LjcyIDEuMzAxMzMsMS4yOTMzNCAzLjQxMiwxLjI5MzM0IDQuNzEzMzMsMCIvPiYjeGE7ICAgIDxwYXRoIGlkPSJwYXRoNTg4IiBzdHlsZT0iZmlsbDojM2ViMDc4O2ZpbGwtb3BhY2l0eToxO2ZpbGwtcnVsZTpub256ZXJvO3N0cm9rZTpub25lO3N0cm9rZS13aWR0aDowLjEzMzMzMyIgZD0ibSAzMDkuNzE4OTIsODguMDEzMzg3IGMgMCwxMi44NjY2NjMgLTEwLjQyNCwyMy4yODAwMDMgLTIzLjI4MjY2LDIzLjI4MDAwMyAtMTIuODYsMCAtMjMuMjg0LC0xMC40MTMzNCAtMjMuMjg0LC0yMy4yODAwMDMgMCwtMTIuODUzMzMzIDEwLjQyNCwtMjMuMjggMjMuMjg0LC0yMy4yOCAxMi44NTg2NiwwIDIzLjI4MjY2LDEwLjQyNjY2NyAyMy4yODI2NiwyMy4yOCIvPiYjeGE7ICAgIDxwYXRoIGlkPSJwYXRoNTkwIiBzdHlsZT0iZmlsbDojZjFhYTBlO2ZpbGwtb3BhY2l0eToxO2ZpbGwtcnVsZTpub256ZXJvO3N0cm9rZTpub25lO3N0cm9rZS13aWR0aDowLjEzMzMzMyIgZD0ibSAyMjIuMzUzNTksODguMDEzMzg3IGMgMCwxMi44NjY2NjMgLTEwLjQyNCwyMy4yODAwMDMgLTIzLjI4MjY2LDIzLjI4MDAwMyAtMTIuODYsMCAtMjMuMjg0LC0xMC40MTMzNCAtMjMuMjg0LC0yMy4yODAwMDMgMCwtMTIuODUzMzMzIDEwLjQyNCwtMjMuMjggMjMuMjg0LC0yMy4yOCAxMi44NTg2NiwwIDIzLjI4MjY2LDEwLjQyNjY2NyAyMy4yODI2NiwyMy4yOCIvPiYjeGE7ICAgIDxwYXRoIGlkPSJwYXRoNTkyIiBzdHlsZT0iZmlsbDojZWMyNzUxO2ZpbGwtb3BhY2l0eToxO2ZpbGwtcnVsZTpub256ZXJvO3N0cm9rZTpub25lO3N0cm9rZS13aWR0aDowLjEzMzMzMyIgZD0ibSAxMzQuOTg4MjYsODguMDEzMzg3IGMgMCwxMi44NjY2NjMgLTEwLjQyNCwyMy4yODAwMDMgLTIzLjI4NCwyMy4yODAwMDMgLTEyLjg1ODY2NCwwIC0yMy4yODI2NjMsLTEwLjQxMzM0IC0yMy4yODI2NjMsLTIzLjI4MDAwMyAwLC0xMi44NTMzMzMgMTAuNDIzOTk5LC0yMy4yOCAyMy4yODI2NjMsLTIzLjI4IDEyLjg2LDAgMjMuMjg0LDEwLjQyNjY2NyAyMy4yODQsMjMuMjgiLz4mI3hhOyAgICA8cGF0aCBpZD0icGF0aDU5NCIgc3R5bGU9ImZpbGw6I2ZmZmZmZjtmaWxsLW9wYWNpdHk6MTtmaWxsLXJ1bGU6bm9uemVybztzdHJva2U6bm9uZTtzdHJva2Utd2lkdGg6MC4xMzMzMzMiIGQ9Ik0gMjM4Ni42OTM1LDEyNS4zMDY3MiBIIDY1NS4yMjY5MiBjIC0yMC42LDAgLTM3LjMwMjY3LC0xNi42OTMzMyAtMzcuMzAyNjcsLTM3LjI5MzMzMyAwLC0yMC42IDE2LjcwMjY3LC0zNy4yOTMzMzMgMzcuMzAyNjcsLTM3LjI5MzMzMyBIIDIzODYuNjkzNSBjIDIwLjYsMCAzNy4yOTM0LDE2LjY5MzMzMyAzNy4yOTM0LDM3LjI5MzMzMyAwLDIwLjYwMDAwMyAtMTYuNjkzNCwzNy4yOTMzMzMgLTM3LjI5MzQsMzcuMjkzMzMzIi8+JiN4YTsgIDwvZz4mI3hhOzwvc3ZnPg==;" vertex="1" parent="1">
          <mxGeometry x="880.11" y="225" width="160" height="110" as="geometry" />
        </mxCell>
        <mxCell id="f_3cH1hv_5cSLZPSs6c6-62" value="" style="group" connectable="0" vertex="1" parent="1">
          <mxGeometry x="899" y="265.11999999999995" width="122" height="29.77000000000004" as="geometry" />
        </mxCell>
        <mxCell id="f_3cH1hv_5cSLZPSs6c6-63" value="" style="group" connectable="0" vertex="1" parent="f_3cH1hv_5cSLZPSs6c6-62">
          <mxGeometry width="122" height="22" as="geometry" />
        </mxCell>
        <mxCell id="f_3cH1hv_5cSLZPSs6c6-64" value="" style="rounded=1;whiteSpace=wrap;html=1;strokeColor=#33FFFF;" vertex="1" parent="f_3cH1hv_5cSLZPSs6c6-63">
          <mxGeometry width="122" height="22" as="geometry" />
        </mxCell>
        <mxCell id="f_3cH1hv_5cSLZPSs6c6-65" value="" style="rounded=1;whiteSpace=wrap;html=1;" vertex="1" parent="f_3cH1hv_5cSLZPSs6c6-63">
          <mxGeometry x="1" y="1" width="120" height="20" as="geometry" />
        </mxCell>
        <mxCell id="f_3cH1hv_5cSLZPSs6c6-66" value="" style="ellipse;whiteSpace=wrap;html=1;aspect=fixed;fillColor=#000000;" vertex="1" parent="f_3cH1hv_5cSLZPSs6c6-63">
          <mxGeometry x="5" y="6" width="10" height="10" as="geometry" />
        </mxCell>
        <mxCell id="f_3cH1hv_5cSLZPSs6c6-67" value="" style="ellipse;whiteSpace=wrap;html=1;aspect=fixed;fillColor=#000000;" vertex="1" parent="f_3cH1hv_5cSLZPSs6c6-63">
          <mxGeometry x="17" y="6" width="10" height="10" as="geometry" />
        </mxCell>
        <mxCell id="f_3cH1hv_5cSLZPSs6c6-68" value="" style="ellipse;whiteSpace=wrap;html=1;aspect=fixed;fillColor=#000000;" vertex="1" parent="f_3cH1hv_5cSLZPSs6c6-63">
          <mxGeometry x="29" y="6" width="10" height="10" as="geometry" />
        </mxCell>
        <mxCell id="f_3cH1hv_5cSLZPSs6c6-69" value="" style="ellipse;whiteSpace=wrap;html=1;aspect=fixed;fillColor=#000000;" vertex="1" parent="f_3cH1hv_5cSLZPSs6c6-63">
          <mxGeometry x="41" y="6" width="10" height="10" as="geometry" />
        </mxCell>
        <mxCell id="f_3cH1hv_5cSLZPSs6c6-70" value="" style="ellipse;whiteSpace=wrap;html=1;aspect=fixed;fillColor=#000000;" vertex="1" parent="f_3cH1hv_5cSLZPSs6c6-63">
          <mxGeometry x="53" y="6" width="10" height="10" as="geometry" />
        </mxCell>
        <mxCell id="f_3cH1hv_5cSLZPSs6c6-71" value="" style="ellipse;whiteSpace=wrap;html=1;aspect=fixed;fillColor=#000000;" vertex="1" parent="f_3cH1hv_5cSLZPSs6c6-63">
          <mxGeometry x="65" y="6" width="10" height="10" as="geometry" />
        </mxCell>
        <mxCell id="f_3cH1hv_5cSLZPSs6c6-72" value="" style="ellipse;whiteSpace=wrap;html=1;aspect=fixed;fillColor=#000000;" vertex="1" parent="f_3cH1hv_5cSLZPSs6c6-63">
          <mxGeometry x="77" y="6" width="10" height="10" as="geometry" />
        </mxCell>
        <mxCell id="f_3cH1hv_5cSLZPSs6c6-73" value="" style="ellipse;whiteSpace=wrap;html=1;aspect=fixed;fillColor=#000000;" vertex="1" parent="f_3cH1hv_5cSLZPSs6c6-63">
          <mxGeometry x="89" y="6" width="10" height="10" as="geometry" />
        </mxCell>
        <mxCell id="f_3cH1hv_5cSLZPSs6c6-74" value="" style="endArrow=none;html=1;rounded=0;" edge="1" parent="f_3cH1hv_5cSLZPSs6c6-63">
          <mxGeometry width="50" height="50" relative="1" as="geometry">
            <mxPoint x="101" y="19" as="sourcePoint" />
            <mxPoint x="101" y="3" as="targetPoint" />
          </mxGeometry>
        </mxCell>
        <mxCell id="f_3cH1hv_5cSLZPSs6c6-75" value="" style="rounded=1;whiteSpace=wrap;html=1;fillColor=#33FF33;" vertex="1" parent="f_3cH1hv_5cSLZPSs6c6-62">
          <mxGeometry y="26.000000000000057" width="38" height="3.77" as="geometry" />
        </mxCell>
        <mxCell id="f_3cH1hv_5cSLZPSs6c6-76" value="" style="rounded=1;whiteSpace=wrap;html=1;fillColor=#33FF33;" vertex="1" parent="f_3cH1hv_5cSLZPSs6c6-62">
          <mxGeometry x="42" y="26.000000000000057" width="38" height="3.77" as="geometry" />
        </mxCell>
        <mxCell id="f_3cH1hv_5cSLZPSs6c6-77" value="" style="rounded=1;whiteSpace=wrap;html=1;fillColor=#FF3333;" vertex="1" parent="f_3cH1hv_5cSLZPSs6c6-62">
          <mxGeometry x="84" y="26.000000000000057" width="38" height="3.77" as="geometry" />
        </mxCell>
        <mxCell id="f_3cH1hv_5cSLZPSs6c6-78" value="" style="shape=image;verticalLabelPosition=bottom;labelBackgroundColor=default;verticalAlign=top;aspect=fixed;imageAspect=0;image=https://playwright.dev/img/playwright-logo.svg;" vertex="1" parent="1">
          <mxGeometry x="1020.22" y="220" width="40" height="40" as="geometry" />
        </mxCell>
        <mxCell id="f_3cH1hv_5cSLZPSs6c6-79" value="&lt;b&gt;3. PSM Analysis&lt;/b&gt;" style="text;html=1;align=left;verticalAlign=middle;whiteSpace=wrap;rounded=0;" vertex="1" parent="1">
          <mxGeometry x="840.11" y="170" width="240.11" height="30" as="geometry" />
        </mxCell>
        <mxCell id="f_3cH1hv_5cSLZPSs6c6-82" style="edgeStyle=orthogonalEdgeStyle;rounded=0;orthogonalLoop=1;jettySize=auto;html=1;exitX=1;exitY=0.5;exitDx=0;exitDy=0;entryX=0;entryY=0.5;entryDx=0;entryDy=0;" edge="1" parent="1" source="7Y8-6h3_lYqPn_erEn_m-35" target="f_3cH1hv_5cSLZPSs6c6-60">
          <mxGeometry relative="1" as="geometry">
            <mxPoint x="720" y="430" as="sourcePoint" />
          </mxGeometry>
        </mxCell>
        <mxCell id="f_3cH1hv_5cSLZPSs6c6-83" style="edgeStyle=orthogonalEdgeStyle;rounded=0;orthogonalLoop=1;jettySize=auto;html=1;exitX=0.5;exitY=1;exitDx=0;exitDy=0;exitPerimeter=0;entryX=0.5;entryY=0;entryDx=0;entryDy=0;" edge="1" parent="1" source="f_3cH1hv_5cSLZPSs6c6-84" target="f_3cH1hv_5cSLZPSs6c6-60">
          <mxGeometry relative="1" as="geometry">
            <mxPoint x="960" y="200" as="targetPoint" />
          </mxGeometry>
        </mxCell>
        <mxCell id="f_3cH1hv_5cSLZPSs6c6-84" value="Password Dataset" style="shape=cylinder3;whiteSpace=wrap;html=1;boundedLbl=1;backgroundOutline=1;size=15;" vertex="1" parent="1">
          <mxGeometry x="930" y="80" width="60" height="80" as="geometry" />
        </mxCell>
        <mxCell id="f_3cH1hv_5cSLZPSs6c6-86" value="&lt;span style=&quot;font-size: 11px; background-color: rgb(255, 255, 255);&quot;&gt;Password Strength&lt;br&gt;Functions (PSFs)&lt;/span&gt;" style="text;html=1;align=center;verticalAlign=middle;resizable=0;points=[];autosize=1;strokeColor=none;fillColor=none;rotation=0;" vertex="1" parent="1">
          <mxGeometry x="720" y="240" width="120" height="40" as="geometry" />
        </mxCell>
        <mxCell id="f_3cH1hv_5cSLZPSs6c6-100" value="&lt;span style=&quot;font-size: 11px; background-color: rgb(255, 255, 255);&quot;&gt;Passwords + Scores&lt;/span&gt;" style="text;html=1;align=center;verticalAlign=middle;resizable=0;points=[];autosize=1;strokeColor=none;fillColor=none;rotation=0;" vertex="1" parent="1">
          <mxGeometry x="840.11" y="370" width="120" height="30" as="geometry" />
        </mxCell>
        <mxCell id="cF8t9t-WA60kGT5HHnNw-2" value="" style="group" connectable="0" vertex="1" parent="1">
          <mxGeometry x="880.22" y="400" width="159.77999999999997" height="60" as="geometry" />
        </mxCell>
        <mxCell id="f_3cH1hv_5cSLZPSs6c6-91" value="" style="rounded=0;whiteSpace=wrap;html=1;" vertex="1" parent="cF8t9t-WA60kGT5HHnNw-2">
          <mxGeometry width="159.78" height="60" as="geometry" />
        </mxCell>
        <mxCell id="f_3cH1hv_5cSLZPSs6c6-93" value="Data Processing" style="text;html=1;align=center;verticalAlign=middle;whiteSpace=wrap;rounded=0;" vertex="1" parent="cF8t9t-WA60kGT5HHnNw-2">
          <mxGeometry x="60" y="15" width="89.78" height="30" as="geometry" />
        </mxCell>
        <mxCell id="f_3cH1hv_5cSLZPSs6c6-97" value="" style="shape=image;verticalLabelPosition=bottom;labelBackgroundColor=default;verticalAlign=top;aspect=fixed;imageAspect=0;image=https://www.svgrepo.com/show/70931/mechanical-gears.svg;" vertex="1" parent="cF8t9t-WA60kGT5HHnNw-2">
          <mxGeometry x="10" y="10" width="40" height="40" as="geometry" />
        </mxCell>
      </root>
    </mxGraphModel>
  </diagram>
  <diagram id="csPtUgfL5TVwNJVphSOV" name="Pagina-2">
    <mxGraphModel grid="1" page="1" gridSize="10" guides="1" tooltips="1" connect="1" arrows="1" fold="1" pageScale="1" pageWidth="1600" pageHeight="1200" math="0" shadow="0">
      <root>
        <mxCell id="0" />
        <mxCell id="1" parent="0" />
        <mxCell id="kn7iuNREm3ci3yuPUMfP-1" value="&lt;b&gt;&lt;font style=&quot;font-size: 18px;&quot;&gt;PSM Detection&lt;/font&gt;&lt;/b&gt;" style="rounded=0;whiteSpace=wrap;html=1;" vertex="1" parent="1">
          <mxGeometry x="400" y="240" width="160" height="80" as="geometry" />
        </mxCell>
        <mxCell id="kn7iuNREm3ci3yuPUMfP-21" style="edgeStyle=orthogonalEdgeStyle;rounded=0;orthogonalLoop=1;jettySize=auto;html=1;exitX=0.5;exitY=1;exitDx=0;exitDy=0;exitPerimeter=0;entryX=0.5;entryY=0;entryDx=0;entryDy=0;" edge="1" parent="1" source="kn7iuNREm3ci3yuPUMfP-22" target="kn7iuNREm3ci3yuPUMfP-24">
          <mxGeometry relative="1" as="geometry" />
        </mxCell>
        <mxCell id="kn7iuNREm3ci3yuPUMfP-22" value="&lt;font style=&quot;font-size: 16px;&quot;&gt;Site List&lt;/font&gt;" style="shape=cylinder3;whiteSpace=wrap;html=1;boundedLbl=1;backgroundOutline=1;size=15;" vertex="1" parent="1">
          <mxGeometry x="160" y="100" width="80" height="100" as="geometry" />
        </mxCell>
        <mxCell id="kn7iuNREm3ci3yuPUMfP-23" style="edgeStyle=orthogonalEdgeStyle;rounded=0;orthogonalLoop=1;jettySize=auto;html=1;exitX=1;exitY=0.5;exitDx=0;exitDy=0;entryX=0;entryY=0.5;entryDx=0;entryDy=0;" edge="1" parent="1" source="kn7iuNREm3ci3yuPUMfP-24" target="kn7iuNREm3ci3yuPUMfP-1">
          <mxGeometry relative="1" as="geometry" />
        </mxCell>
        <mxCell id="kn7iuNREm3ci3yuPUMfP-24" value="&lt;b&gt;&lt;font style=&quot;font-size: 18px;&quot;&gt;Registration Page&lt;br&gt;Detection&lt;/font&gt;&lt;/b&gt;" style="rounded=0;whiteSpace=wrap;html=1;" vertex="1" parent="1">
          <mxGeometry x="119.72" y="240" width="160.28" height="80" as="geometry" />
        </mxCell>
        <mxCell id="kn7iuNREm3ci3yuPUMfP-29" style="edgeStyle=orthogonalEdgeStyle;rounded=0;orthogonalLoop=1;jettySize=auto;html=1;exitX=0.5;exitY=1;exitDx=0;exitDy=0;" edge="1" parent="1" source="kn7iuNREm3ci3yuPUMfP-30" target="kn7iuNREm3ci3yuPUMfP-56">
          <mxGeometry relative="1" as="geometry" />
        </mxCell>
        <mxCell id="kn7iuNREm3ci3yuPUMfP-30" value="&lt;b&gt;&lt;font style=&quot;font-size: 18px;&quot;&gt;PSM Analysis&lt;/font&gt;&lt;/b&gt;" style="rounded=0;whiteSpace=wrap;html=1;" vertex="1" parent="1">
          <mxGeometry x="680" y="240" width="160" height="80" as="geometry" />
        </mxCell>
        <mxCell id="kn7iuNREm3ci3yuPUMfP-50" style="edgeStyle=orthogonalEdgeStyle;rounded=0;orthogonalLoop=1;jettySize=auto;html=1;exitX=1;exitY=0.5;exitDx=0;exitDy=0;entryX=0;entryY=0.5;entryDx=0;entryDy=0;" edge="1" parent="1" source="kn7iuNREm3ci3yuPUMfP-1" target="kn7iuNREm3ci3yuPUMfP-30">
          <mxGeometry relative="1" as="geometry">
            <mxPoint x="720" y="430" as="sourcePoint" />
          </mxGeometry>
        </mxCell>
        <mxCell id="kn7iuNREm3ci3yuPUMfP-51" style="edgeStyle=orthogonalEdgeStyle;rounded=0;orthogonalLoop=1;jettySize=auto;html=1;exitX=0.5;exitY=1;exitDx=0;exitDy=0;exitPerimeter=0;entryX=0.5;entryY=0;entryDx=0;entryDy=0;" edge="1" parent="1" source="kn7iuNREm3ci3yuPUMfP-52" target="kn7iuNREm3ci3yuPUMfP-30">
          <mxGeometry relative="1" as="geometry">
            <mxPoint x="960" y="200" as="targetPoint" />
          </mxGeometry>
        </mxCell>
        <mxCell id="kn7iuNREm3ci3yuPUMfP-52" value="&lt;font style=&quot;font-size: 16px;&quot;&gt;Password Dataset&lt;/font&gt;" style="shape=cylinder3;whiteSpace=wrap;html=1;boundedLbl=1;backgroundOutline=1;size=15;align=center;" vertex="1" parent="1">
          <mxGeometry x="720" y="100" width="80" height="100" as="geometry" />
        </mxCell>
        <mxCell id="kn7iuNREm3ci3yuPUMfP-59" value="" style="group" connectable="0" vertex="1" parent="1">
          <mxGeometry x="680" y="360" width="159.77999999999997" height="60" as="geometry" />
        </mxCell>
        <mxCell id="kn7iuNREm3ci3yuPUMfP-56" value="" style="rounded=0;whiteSpace=wrap;html=1;" vertex="1" parent="kn7iuNREm3ci3yuPUMfP-59">
          <mxGeometry width="159.78" height="60" as="geometry" />
        </mxCell>
        <mxCell id="kn7iuNREm3ci3yuPUMfP-57" value="&lt;font style=&quot;font-size: 18px;&quot;&gt;Data Processing&lt;/font&gt;" style="text;html=1;align=center;verticalAlign=middle;whiteSpace=wrap;rounded=0;" vertex="1" parent="kn7iuNREm3ci3yuPUMfP-59">
          <mxGeometry x="60" y="15" width="89.78" height="30" as="geometry" />
        </mxCell>
        <mxCell id="kn7iuNREm3ci3yuPUMfP-58" value="" style="shape=image;verticalLabelPosition=bottom;labelBackgroundColor=default;verticalAlign=top;aspect=fixed;imageAspect=0;image=https://www.svgrepo.com/show/70931/mechanical-gears.svg;" vertex="1" parent="kn7iuNREm3ci3yuPUMfP-59">
          <mxGeometry x="10" y="10" width="40" height="40" as="geometry" />
        </mxCell>
        <mxCell id="WLNcoJ_Gh9Dkqh62Vc-Y-1" value="&lt;span style=&quot;color: rgb(0, 0, 0); font-family: Helvetica; font-size: 16px; font-style: normal; font-variant-ligatures: normal; font-variant-caps: normal; font-weight: 400; letter-spacing: normal; orphans: 2; text-indent: 0px; text-transform: none; widows: 2; word-spacing: 0px; -webkit-text-stroke-width: 0px; white-space: nowrap; background-color: rgb(255, 255, 255); text-decoration-thickness: initial; text-decoration-style: initial; text-decoration-color: initial; float: none; display: inline !important;&quot;&gt;Registration&lt;/span&gt;&lt;br style=&quot;forced-color-adjust: none; color: rgb(0, 0, 0); font-family: Helvetica; font-size: 16px; font-style: normal; font-variant-ligatures: normal; font-variant-caps: normal; font-weight: 400; letter-spacing: normal; orphans: 2; text-indent: 0px; text-transform: none; widows: 2; word-spacing: 0px; -webkit-text-stroke-width: 0px; white-space: nowrap; background-color: rgb(255, 255, 255); text-decoration-thickness: initial; text-decoration-style: initial; text-decoration-color: initial;&quot;&gt;&lt;span style=&quot;color: rgb(0, 0, 0); font-family: Helvetica; font-size: 16px; font-style: normal; font-variant-ligatures: normal; font-variant-caps: normal; font-weight: 400; letter-spacing: normal; orphans: 2; text-indent: 0px; text-transform: none; widows: 2; word-spacing: 0px; -webkit-text-stroke-width: 0px; white-space: nowrap; background-color: rgb(255, 255, 255); text-decoration-thickness: initial; text-decoration-style: initial; text-decoration-color: initial; float: none; display: inline !important;&quot;&gt;Pages&lt;/span&gt;" style="text;whiteSpace=wrap;html=1;align=center;verticalAlign=bottom;" vertex="1" parent="1">
          <mxGeometry x="280" y="230" width="120" height="40" as="geometry" />
        </mxCell>
        <mxCell id="WLNcoJ_Gh9Dkqh62Vc-Y-2" value="&lt;font style=&quot;font-size: 16px;&quot;&gt;&lt;span style=&quot;color: rgb(0, 0, 0); font-family: Helvetica; font-style: normal; font-variant-ligatures: normal; font-variant-caps: normal; font-weight: 400; letter-spacing: normal; orphans: 2; text-indent: 0px; text-transform: none; widows: 2; word-spacing: 0px; -webkit-text-stroke-width: 0px; white-space: nowrap; background-color: rgb(255, 255, 255); text-decoration-thickness: initial; text-decoration-style: initial; text-decoration-color: initial; float: none; display: inline !important;&quot;&gt;Password&lt;/span&gt;&lt;br style=&quot;forced-color-adjust: none; color: rgb(0, 0, 0); font-family: Helvetica; font-style: normal; font-variant-ligatures: normal; font-variant-caps: normal; font-weight: 400; letter-spacing: normal; orphans: 2; text-indent: 0px; text-transform: none; widows: 2; word-spacing: 0px; -webkit-text-stroke-width: 0px; white-space: nowrap; background-color: rgb(255, 255, 255); text-decoration-thickness: initial; text-decoration-style: initial; text-decoration-color: initial;&quot;&gt;&lt;span style=&quot;color: rgb(0, 0, 0); font-family: Helvetica; font-style: normal; font-variant-ligatures: normal; font-variant-caps: normal; font-weight: 400; letter-spacing: normal; orphans: 2; text-indent: 0px; text-transform: none; widows: 2; word-spacing: 0px; -webkit-text-stroke-width: 0px; white-space: nowrap; background-color: rgb(255, 255, 255); text-decoration-thickness: initial; text-decoration-style: initial; text-decoration-color: initial; float: none; display: inline !important;&quot;&gt;Strength&lt;/span&gt;&lt;br style=&quot;forced-color-adjust: none; color: rgb(0, 0, 0); font-family: Helvetica; font-style: normal; font-variant-ligatures: normal; font-variant-caps: normal; font-weight: 400; letter-spacing: normal; orphans: 2; text-indent: 0px; text-transform: none; widows: 2; word-spacing: 0px; -webkit-text-stroke-width: 0px; white-space: nowrap; background-color: rgb(255, 255, 255); text-decoration-thickness: initial; text-decoration-style: initial; text-decoration-color: initial;&quot;&gt;&lt;span style=&quot;color: rgb(0, 0, 0); font-family: Helvetica; font-style: normal; font-variant-ligatures: normal; font-variant-caps: normal; font-weight: 400; letter-spacing: normal; orphans: 2; text-indent: 0px; text-transform: none; widows: 2; word-spacing: 0px; -webkit-text-stroke-width: 0px; white-space: nowrap; background-color: rgb(255, 255, 255); text-decoration-thickness: initial; text-decoration-style: initial; text-decoration-color: initial; float: none; display: inline !important;&quot;&gt;Functions&lt;/span&gt;&lt;/font&gt;&lt;div&gt;&lt;font style=&quot;font-size: 16px;&quot;&gt;&lt;span style=&quot;color: rgb(0, 0, 0); font-family: Helvetica; font-style: normal; font-variant-ligatures: normal; font-variant-caps: normal; font-weight: 400; letter-spacing: normal; orphans: 2; text-indent: 0px; text-transform: none; widows: 2; word-spacing: 0px; -webkit-text-stroke-width: 0px; white-space: nowrap; background-color: rgb(255, 255, 255); text-decoration-thickness: initial; text-decoration-style: initial; text-decoration-color: initial; float: none; display: inline !important;&quot;&gt;(PSFs)&lt;/span&gt;&lt;/font&gt;&lt;/div&gt;" style="text;whiteSpace=wrap;html=1;align=center;verticalAlign=bottom;" vertex="1" parent="1">
          <mxGeometry x="560" y="190" width="120" height="80" as="geometry" />
        </mxCell>
        <mxCell id="WLNcoJ_Gh9Dkqh62Vc-Y-3" value="&lt;span style=&quot;forced-color-adjust: none; color: rgb(0, 0, 0); font-family: Helvetica; font-size: 16px; font-style: normal; font-variant-ligatures: normal; font-variant-caps: normal; font-weight: 400; letter-spacing: normal; orphans: 2; text-indent: 0px; text-transform: none; widows: 2; word-spacing: 0px; -webkit-text-stroke-width: 0px; white-space: nowrap; text-decoration-thickness: initial; text-decoration-style: initial; text-decoration-color: initial; background-color: light-dark(rgb(255, 255, 255), rgb(18, 18, 18));&quot;&gt;Passwords +&amp;nbsp;&lt;/span&gt;&lt;span style=&quot;forced-color-adjust: none; color: light-dark(rgb(0, 0, 0), rgb(255, 255, 255)); font-family: Helvetica; font-size: 16px; font-style: normal; font-variant-ligatures: normal; font-variant-caps: normal; font-weight: 400; letter-spacing: normal; orphans: 2; text-indent: 0px; text-transform: none; widows: 2; word-spacing: 0px; -webkit-text-stroke-width: 0px; white-space: nowrap; text-decoration-thickness: initial; text-decoration-style: initial; text-decoration-color: initial; background-color: light-dark(rgb(255, 255, 255), rgb(18, 18, 18));&quot;&gt;Scores&lt;/span&gt;" style="text;whiteSpace=wrap;html=1;align=right;verticalAlign=middle;" vertex="1" parent="1">
          <mxGeometry x="570" y="320" width="180" height="40" as="geometry" />
        </mxCell>
      </root>
    </mxGraphModel>
  </diagram>
</mxfile>
